<?xml version="1.0" standalone="no"?><!DOCTYPE svg PUBLIC "-//W3C//DTD SVG 1.1//EN" "http://www.w3.org/Graphics/SVG/1.1/DTD/svg11.dtd"><svg t="1689511406754" class="icon" viewBox="0 0 1024 1024" version="1.1" xmlns="http://www.w3.org/2000/svg" p-id="4071" xmlns:xlink="http://www.w3.org/1999/xlink" width="200" height="200"><path d="M512 563.2c-123.733333 0-226.133333-102.4-226.133333-226.133333S388.266667 110.933333 512 110.933333s226.133333 102.4 226.133333 226.133334-102.4 226.133333-226.133333 226.133333z m0-388.266667c-89.6 0-162.133333 72.533333-162.133333 162.133334s72.533333 162.133333 162.133333 162.133333 162.133333-72.533333 162.133333-162.133333-72.533333-162.133333-162.133333-162.133334zM763.733333 913.066667H260.266667c-85.333333 0-153.6-68.266667-153.6-153.6s68.266667-153.6 153.6-153.6H768c85.333333 0 153.6 68.266667 153.6 153.6s-72.533333 153.6-157.866667 153.6zM260.266667 669.866667c-51.2 0-89.6 38.4-89.6 89.6 0 51.2 38.4 89.6 89.6 89.6H768c51.2 0 89.6-38.4 89.6-89.6 0-51.2-38.4-89.6-89.6-89.6H260.266667z" p-id="4072" fill="#ccc"></path></svg>